<svg width="64" height="64" viewBox="0 0 64 64" fill="none" xmlns="http://www.w3.org/2000/svg">
<g id="link_circle" filter="url(#filter0_d_402_930)">
<g id="&#226;&#134;&#179; Icon Color">
<path fill-rule="evenodd" clip-rule="evenodd" d="M13.1435 13.144C17.9666 8.32089 24.6365 5.3335 31.9997 5.3335C39.3628 5.3335 46.0328 8.32089 50.8559 13.144C55.6789 17.9671 58.6663 24.637 58.6663 32.0002C58.6663 39.3633 55.6789 46.0333 50.8559 50.8563C46.0328 55.6794 39.3628 58.6668 31.9997 58.6668C24.6365 58.6668 17.9666 55.6794 13.1435 50.8563C8.3204 46.0333 5.33301 39.3633 5.33301 32.0002C5.33301 24.637 8.3204 17.9671 13.1435 13.144ZM31.9997 10.1335C25.9607 10.1335 20.4973 12.5784 16.5376 16.5381C12.5779 20.4978 10.133 25.9612 10.133 32.0002C10.133 38.0391 12.5779 43.5025 16.5376 47.4622C20.4973 51.4219 25.9607 53.8668 31.9997 53.8668C38.0386 53.8668 43.502 51.4219 47.4617 47.4622C51.4215 43.5025 53.8663 38.0391 53.8663 32.0002C53.8663 25.9612 51.4215 20.4978 47.4617 16.5381C43.502 12.5784 38.0386 10.1335 31.9997 10.1335Z" fill="#FAFAFA"/>
<path fill-rule="evenodd" clip-rule="evenodd" d="M23.9996 23.7335C23.9996 22.408 25.0741 21.3335 26.3996 21.3335H40.2663C41.5917 21.3335 42.6663 22.408 42.6663 23.7335V37.6002C42.6663 38.9256 41.5917 40.0002 40.2663 40.0002C38.9408 40.0002 37.8663 38.9256 37.8663 37.6002V29.5276L25.43 41.9639C24.4927 42.9011 22.9731 42.9011 22.0359 41.9639C21.0986 41.0266 21.0986 39.507 22.0359 38.5698L34.4721 26.1335H26.3996C25.0741 26.1335 23.9996 25.059 23.9996 23.7335Z" fill="#FAFAFA"/>
</g>
</g>
<defs>
<filter id="filter0_d_402_930" x="-4" y="-4" width="72" height="72" filterUnits="userSpaceOnUse" color-interpolation-filters="sRGB">
<feFlood flood-opacity="0" result="BackgroundImageFix"/>
<feColorMatrix in="SourceAlpha" type="matrix" values="0 0 0 0 0 0 0 0 0 0 0 0 0 0 0 0 0 0 127 0" result="hardAlpha"/>
<feOffset/>
<feGaussianBlur stdDeviation="2"/>
<feColorMatrix type="matrix" values="0 0 0 0 0 0 0 0 0 0 0 0 0 0 0 0 0 0 0.5 0"/>
<feBlend mode="normal" in2="BackgroundImageFix" result="effect1_dropShadow_402_930"/>
<feBlend mode="normal" in="SourceGraphic" in2="effect1_dropShadow_402_930" result="shape"/>
</filter>
</defs>
</svg>
