<svg width="24" height="24" viewBox="0 0 24 24" fill="none" xmlns="http://www.w3.org/2000/svg">
<g id="shopping_cart_outline_24">
<path id="&#226;&#134;&#179; Icon Color" fill-rule="evenodd" clip-rule="evenodd" d="M3.49304 4.93373C3.40728 4.90883 3.28248 4.90001 2.65857 4.90001H1.99961C1.50255 4.90001 1.09961 4.49707 1.09961 4.00001C1.09961 3.50296 1.50255 3.10001 1.99961 3.10001H2.65857L2.75998 3.09993C3.22234 3.09938 3.62913 3.0989 3.99499 3.20513C4.72515 3.41716 5.32907 3.93259 5.65318 4.62038C5.7235 4.7696 5.77526 4.92954 5.81721 5.10002H18.1091L18.1353 5.10001C18.566 5.1 18.9281 5.1 19.2237 5.11741C19.5287 5.13539 19.83 5.17445 20.1223 5.28377C21.1184 5.65633 21.8307 6.5443 21.9783 7.59757C22.0216 7.9066 21.9944 8.20913 21.9458 8.51084C21.8987 8.80311 21.8201 9.15661 21.7267 9.57701L21.721 9.60266L21.0872 12.4545L21.0624 12.5667C20.922 13.2001 20.8142 13.6865 20.5956 14.0974C20.1576 14.9204 19.4008 15.5274 18.5025 15.7764C18.0539 15.9008 17.5557 15.9005 16.9069 15.9001L16.792 15.9H9.48681L9.36449 15.9001C8.67853 15.9005 8.15262 15.9009 7.6852 15.7651C6.74839 15.4931 5.97355 14.8318 5.55771 13.9494C5.35023 13.5091 5.26794 12.9896 5.16062 12.3121L5.14145 12.1913L4.18932 6.20648C4.09129 5.59032 4.06298 5.46846 4.02491 5.38768C3.92095 5.16707 3.72724 5.00174 3.49304 4.93373ZM6.12229 6.90001L6.9191 11.9085C7.05512 12.7635 7.10243 13.0048 7.18597 13.1821C7.38166 13.5973 7.74629 13.9085 8.18715 14.0365C8.37537 14.0912 8.62107 14.1 9.48681 14.1H16.792C17.6095 14.1 17.8408 14.092 18.0216 14.0419C18.4444 13.9247 18.8005 13.639 19.0066 13.2517C19.0948 13.0861 19.1528 12.8621 19.3301 12.064L19.9638 9.21218C20.0645 8.75941 20.1311 8.45799 20.1687 8.22439C20.2058 7.99431 20.2026 7.89659 20.1957 7.84736C20.1397 7.44785 19.8696 7.11103 19.4917 6.96971C19.4451 6.9523 19.3504 6.928 19.1178 6.9143C18.8816 6.90038 18.5729 6.90001 18.1091 6.90001H6.12229ZM6.9996 19.25C6.9996 18.2835 7.7831 17.5 8.7496 17.5C9.7161 17.5 10.4996 18.2835 10.4996 19.25C10.4996 20.2165 9.7161 21 8.7496 21C7.7831 21 6.9996 20.2165 6.9996 19.25ZM17.2496 17.5C16.2831 17.5 15.4996 18.2835 15.4996 19.25C15.4996 20.2165 16.2831 21 17.2496 21C18.2161 21 18.9996 20.2165 18.9996 19.25C18.9996 18.2835 18.2161 17.5 17.2496 17.5Z" fill="#FAFAFA"/>
</g>
</svg>
